<svg id="logo" width="235" height="44" viewBox="0 0 235 44" fill="none" xmlns="http://www.w3.org/2000/svg">
    <path d="M41.2318 32.6835C38.8574 36.9577 35.1268 40.3192 30.6291 42.237C26.1315 44.1549 21.1231 44.5197 16.395 43.274C11.6669 42.0283 7.48844 39.243 4.51964 35.358C1.55083 31.473 -0.0391743 26.7098 0.000732784 21.8204C0.0406399 16.9311 1.70818 12.1944 4.74001 8.35842C7.77184 4.52241 11.9952 1.80569 16.743 0.637326C21.4908 -0.531038 26.4926 -0.0844679 30.9583 1.90651C35.4241 3.89749 39.0993 7.31941 41.4036 11.6318L36.1694 14.4287C34.4867 11.2796 31.8029 8.78076 28.5418 7.32686C25.2807 5.87296 21.6282 5.54685 18.1611 6.40004C14.694 7.25323 11.61 9.2371 9.396 12.0383C7.18203 14.8395 5.96432 18.2985 5.93517 21.8689C5.90603 25.4393 7.06712 28.9176 9.23507 31.7546C11.403 34.5916 14.4543 36.6255 17.907 37.5352C21.3597 38.4449 25.017 38.1784 28.3014 36.778C31.5858 35.3775 34.31 32.9228 36.0439 29.8016L41.2318 32.6835Z" fill="#EE773B"/>
    <path d="M36.5 30C34.5615 32.8971 30.5275 35.9797 27.2335 37.1199C23.9394 38.2601 20.363 38.2933 17.0483 37.2145C13.7336 36.1357 10.8619 34.0039 8.86991 31.1434C6.87789 28.2828 5.87458 24.8499 6.01253 21.3668C6.15049 17.8837 7.42217 14.5409 9.63419 11.8468C11.8462 9.15277 14.8775 7.25479 18.2672 6.44154C21.6568 5.62829 25.2193 5.94426 28.4129 7.3414C31.6065 8.73855 34.2564 11.1404 35.9598 14.1818L30.604 17.1813C29.5542 15.3068 27.9209 13.8264 25.9525 12.9653C23.9842 12.1041 21.7885 11.9094 19.6993 12.4106C17.6101 12.9119 15.7418 14.0817 14.3784 15.7422C13.015 17.4026 12.2313 19.4629 12.1462 21.6097C12.0612 23.7565 12.6796 25.8723 13.9073 27.6355C15.1351 29.3986 16.9051 30.7125 18.9481 31.3774C20.9911 32.0423 23.1953 32.0218 25.2256 31.3191C27.2559 30.6163 29.8052 28.7856 31 27L36.5 30Z" fill="white"/>
    <path d="M62.8761 28.9621C61.595 28.9621 60.4359 28.6815 59.3988 28.1202C58.3739 27.5468 57.5686 26.7659 56.983 25.7776C56.3973 24.7771 56.1045 23.6546 56.1045 22.4101C56.1045 21.1656 56.3973 20.0492 56.983 19.0609C57.5686 18.0604 58.38 17.2795 59.4171 16.7183C60.4542 16.1448 61.6133 15.8581 62.8944 15.8581C63.8949 15.8581 64.81 16.0289 65.6396 16.3705C66.4693 16.7 67.177 17.1941 67.7626 17.853L66.573 19.006C65.6091 17.9933 64.4073 17.4869 62.9676 17.4869C62.0159 17.4869 61.1557 17.7005 60.3871 18.1275C59.6184 18.5545 59.0144 19.1463 58.5752 19.9028C58.1482 20.647 57.9346 21.4828 57.9346 22.4101C57.9346 23.3374 58.1482 24.1792 58.5752 24.9357C59.0144 25.68 59.6184 26.2656 60.3871 26.6927C61.1557 27.1197 62.0159 27.3332 62.9676 27.3332C64.3951 27.3332 65.5969 26.8208 66.573 25.7959L67.7626 26.9489C67.177 27.6078 66.4632 28.108 65.6213 28.4496C64.7917 28.7913 63.8766 28.9621 62.8761 28.9621ZM76.711 24.3867V28.8157H74.8991V24.3501L69.8113 16.0045H71.7696L75.8691 22.7578L79.987 16.0045H81.7989L76.711 24.3867ZM93.7086 22.1722C94.4528 22.3796 95.0385 22.7578 95.4655 23.3069C95.8926 23.8437 96.1061 24.527 96.1061 25.3567C96.1061 26.467 95.6851 27.321 94.8433 27.9189C94.0136 28.5167 92.7996 28.8157 91.2012 28.8157H85.0885V16.0045H90.8352C92.2993 16.0045 93.4279 16.2973 94.221 16.883C95.0263 17.4686 95.4289 18.28 95.4289 19.3171C95.4289 19.9882 95.2703 20.5677 94.9531 21.0558C94.648 21.5438 94.2332 21.9159 93.7086 22.1722ZM86.9186 17.4869V21.5865H90.6705C91.61 21.5865 92.3298 21.4157 92.8301 21.0741C93.3425 20.7202 93.5987 20.2078 93.5987 19.5367C93.5987 18.8657 93.3425 18.3593 92.8301 18.0177C92.3298 17.6639 91.61 17.4869 90.6705 17.4869H86.9186ZM91.128 27.3332C92.1651 27.3332 92.946 27.1624 93.4706 26.8208C93.9953 26.4792 94.2576 25.9423 94.2576 25.2102C94.2576 23.7827 93.2144 23.0689 91.128 23.0689H86.9186V27.3332H91.128ZM109.884 27.2234V28.8157H100.587V16.0045H109.628V17.5967H102.417V21.5316H108.841V23.0872H102.417V27.2234H109.884ZM123.06 28.8157L120.296 24.8808C119.955 24.9052 119.686 24.9174 119.491 24.9174H116.325V28.8157H114.495V16.0045H119.491C121.151 16.0045 122.456 16.401 123.408 17.1941C124.359 17.9872 124.835 19.0792 124.835 20.4701C124.835 21.4584 124.591 22.3003 124.103 22.9957C123.615 23.6912 122.92 24.1976 122.017 24.5148L125.055 28.8157H123.06ZM119.436 23.3618C120.595 23.3618 121.48 23.1117 122.09 22.6114C122.7 22.1112 123.005 21.3974 123.005 20.4701C123.005 19.5428 122.7 18.8352 122.09 18.3471C121.48 17.8469 120.595 17.5967 119.436 17.5967H116.325V23.3618H119.436ZM133.173 28.9621C132.209 28.9621 131.276 28.8157 130.373 28.5228C129.482 28.2178 128.78 27.8274 128.268 27.3515L128.945 25.924C129.433 26.3632 130.055 26.7232 130.812 27.0038C131.581 27.2722 132.368 27.4064 133.173 27.4064C134.234 27.4064 135.027 27.2295 135.552 26.8757C136.077 26.5097 136.339 26.0277 136.339 25.4299C136.339 24.9906 136.193 24.6368 135.9 24.3684C135.619 24.0877 135.265 23.8742 134.838 23.7278C134.423 23.5814 133.832 23.4167 133.063 23.2337C132.099 23.0018 131.318 22.77 130.72 22.5382C130.135 22.3064 129.628 21.9525 129.201 21.4767C128.787 20.9887 128.579 20.3359 128.579 19.5184C128.579 18.8352 128.756 18.219 129.11 17.67C129.476 17.1209 130.025 16.6817 130.757 16.3522C131.489 16.0228 132.398 15.8581 133.484 15.8581C134.24 15.8581 134.985 15.9557 135.717 16.1509C136.449 16.3461 137.077 16.6268 137.602 16.9928L136.998 18.4569C136.461 18.1153 135.888 17.8591 135.278 17.6883C134.667 17.5052 134.07 17.4137 133.484 17.4137C132.447 17.4137 131.666 17.6028 131.141 17.9811C130.629 18.3593 130.373 18.8474 130.373 19.4452C130.373 19.8845 130.519 20.2444 130.812 20.525C131.105 20.7934 131.465 21.007 131.892 21.1656C132.331 21.312 132.923 21.4706 133.667 21.6414C134.631 21.8732 135.406 22.1051 135.991 22.3369C136.577 22.5687 137.077 22.9225 137.492 23.3984C137.919 23.8742 138.133 24.5148 138.133 25.3201C138.133 25.9911 137.95 26.6073 137.584 27.1685C137.217 27.7176 136.662 28.1568 135.918 28.4862C135.174 28.8035 134.259 28.9621 133.173 28.9621ZM147.45 16.0045C149.109 16.0045 150.415 16.401 151.366 17.1941C152.318 17.9872 152.794 19.0792 152.794 20.4701C152.794 21.861 152.318 22.953 151.366 23.7461C150.415 24.5392 149.109 24.9357 147.45 24.9357H144.284V28.8157H142.453V16.0045H147.45ZM147.395 23.3435C148.554 23.3435 149.439 23.0995 150.049 22.6114C150.659 22.1112 150.964 21.3974 150.964 20.4701C150.964 19.5428 150.659 18.8352 150.049 18.3471C149.439 17.8469 148.554 17.5967 147.395 17.5967H144.284V23.3435H147.395ZM163.092 28.9621C161.799 28.9621 160.633 28.6815 159.596 28.1202C158.559 27.5468 157.742 26.7598 157.144 25.7593C156.558 24.7588 156.265 23.6424 156.265 22.4101C156.265 21.1778 156.558 20.0614 157.144 19.0609C157.742 18.0604 158.559 17.2795 159.596 16.7183C160.633 16.1448 161.799 15.8581 163.092 15.8581C164.373 15.8581 165.532 16.1448 166.569 16.7183C167.606 17.2795 168.418 18.0604 169.003 19.0609C169.589 20.0492 169.882 21.1656 169.882 22.4101C169.882 23.6546 169.589 24.7771 169.003 25.7776C168.418 26.7659 167.606 27.5468 166.569 28.1202C165.532 28.6815 164.373 28.9621 163.092 28.9621ZM163.092 27.3332C164.031 27.3332 164.873 27.1197 165.618 26.6927C166.374 26.2656 166.966 25.68 167.393 24.9357C167.832 24.1792 168.052 23.3374 168.052 22.4101C168.052 21.4828 167.832 20.647 167.393 19.9028C166.966 19.1463 166.374 18.5545 165.618 18.1275C164.873 17.7005 164.031 17.4869 163.092 17.4869C162.152 17.4869 161.298 17.7005 160.53 18.1275C159.773 18.5545 159.175 19.1463 158.736 19.9028C158.309 20.647 158.096 21.4828 158.096 22.4101C158.096 23.3374 158.309 24.1792 158.736 24.9357C159.175 25.68 159.773 26.2656 160.53 26.6927C161.298 27.1197 162.152 27.3332 163.092 27.3332ZM182.891 28.8157L180.128 24.8808C179.786 24.9052 179.518 24.9174 179.323 24.9174H176.156V28.8157H174.326V16.0045H179.323C180.982 16.0045 182.288 16.401 183.239 17.1941C184.191 17.9872 184.667 19.0792 184.667 20.4701C184.667 21.4584 184.423 22.3003 183.935 22.9957C183.447 23.6912 182.751 24.1976 181.848 24.5148L184.886 28.8157H182.891ZM179.268 23.3618C180.427 23.3618 181.311 23.1117 181.921 22.6114C182.532 22.1112 182.837 21.3974 182.837 20.4701C182.837 19.5428 182.532 18.8352 181.921 18.3471C181.311 17.8469 180.427 17.5967 179.268 17.5967H176.156V23.3618H179.268ZM191.636 17.5967H187.244V16.0045H197.84V17.5967H193.448V28.8157H191.636V17.5967ZM215.839 28.8157L213.076 24.8808C212.734 24.9052 212.466 24.9174 212.271 24.9174H209.104V28.8157H207.274V16.0045H212.271C213.93 16.0045 215.236 16.401 216.187 17.1941C217.139 17.9872 217.615 19.0792 217.615 20.4701C217.615 21.4584 217.371 22.3003 216.883 22.9957C216.395 23.6912 215.699 24.1976 214.796 24.5148L217.834 28.8157H215.839ZM212.216 23.3618C213.375 23.3618 214.259 23.1117 214.87 22.6114C215.48 22.1112 215.785 21.3974 215.785 20.4701C215.785 19.5428 215.48 18.8352 214.87 18.3471C214.259 17.8469 213.375 17.5967 212.216 17.5967H209.104V23.3618H212.216ZM227.526 28.9621C225.818 28.9621 224.488 28.474 223.536 27.498C222.585 26.5219 222.109 25.1187 222.109 23.2886V16.0045H223.939V23.2154C223.939 25.9606 225.141 27.3332 227.545 27.3332C228.716 27.3332 229.613 26.9977 230.235 26.3266C230.857 25.6434 231.168 24.6063 231.168 23.2154V16.0045H232.944V23.2886C232.944 25.1309 232.468 26.5402 231.516 27.5163C230.564 28.4801 229.234 28.9621 227.526 28.9621Z" fill="white"/>
    <path d="M201.645 28.9255C201.304 28.9255 201.011 28.8096 200.767 28.5778C200.523 28.3337 200.401 28.0287 200.401 27.6627C200.401 27.3088 200.523 27.016 200.767 26.7842C201.011 26.5402 201.304 26.4182 201.645 26.4182C201.987 26.4182 202.274 26.5341 202.506 26.7659C202.737 26.9977 202.853 27.2966 202.853 27.6627C202.853 28.0287 202.731 28.3337 202.487 28.5778C202.255 28.8096 201.975 28.9255 201.645 28.9255Z" fill="#EE773B"/>
</svg>
