<svg viewBox="0 0 24 24" xmlns="http://www.w3.org/2000/svg">
    <path fill-rule="evenodd" clip-rule="evenodd" d="M15.6977 10.3485H9.18605V9.34848H15.6977V10.3485ZM15.6977 13.2576H9.18605V12.2576H15.6977V13.2576ZM16.8837 6H8C6.89543 6 6 6.89543 6 8V13.6364C6 14.7409 6.89543 15.6364 8 15.6364H16.8837C17.9883 15.6364 18.8837 14.7409 18.8837 13.6364V8C18.8837 6.89543 17.9883 6 16.8837 6ZM8 5C6.34315 5 5 6.34315 5 8V13.6364C5 15.2932 6.34314 16.6364 8 16.6364H16.8837C18.5406 16.6364 19.8837 15.2932 19.8837 13.6364V8C19.8837 6.34315 18.5406 5 16.8837 5H8Z" />
    <path fill-rule="evenodd" clip-rule="evenodd" d="M14.5469 16.9824L10.3608 21.3461C10.2195 21.4934 10.0029 21.54 9.81347 21.4638C9.62408 21.3877 9.5 21.2041 9.5 20.9999V16.6363H10.5V19.7565L13.8252 16.2902L14.5469 16.9824Z" />
</svg>
