<svg viewBox="0 0 16 16" fill="none" xmlns="http://www.w3.org/2000/svg">
    <g clip-path="url(#clip0_1_1912)">
        <path fill-rule="evenodd" clip-rule="evenodd" d="M8.49789 14.5C11.3304 14.5 13.4971 12.5193 13.4971 10C13.4971 8.50942 12.7947 7.78769 11.5569 6.55449C10.5387 5.54007 9.27583 4.26631 8.74902 2.14558C8.46086 2.37497 8.17936 2.66029 7.9531 2.99474C7.46604 3.71468 7.24058 4.63292 7.83879 5.82931C8.31231 6.77635 8.50841 8.11292 7.56066 9.06067C6.99612 9.62521 6.03042 10.0225 4.98238 9.58339C4.51163 9.38617 4.12204 9.0572 3.79773 8.6453C3.61652 9.02492 3.50001 9.48833 3.5 10C3.49994 12.5298 5.6636 14.5 8.49789 14.5ZM10.0143 0.499801C9.99819 0.224131 9.77398 0.00216511 9.50695 0.0725221C7.79801 0.522795 4.7625 3.03091 6.49715 6.50014C6.84142 7.18867 6.78164 7.71837 6.5 8.00001C6.03859 8.46142 5.15137 8.49703 4.4261 6.72384C4.31949 6.46321 4.02626 6.31677 3.78436 6.46091C2.68278 7.11733 2.00003 8.5355 2 10C1.99992 13.5121 4.99789 16 8.49789 16C11.9979 16 14.9971 13.5 14.9971 10C14.9971 7.86279 13.8699 6.74062 12.6862 5.56219C11.4555 4.33693 10.1637 3.05086 10.0143 0.499801Z" />
    </g>
    <defs>
        <clipPath id="clip0_1_1912">
            <rect width="16" height="16" />
        </clipPath>
    </defs>
</svg>
