<svg viewBox="0 0 24 24" xmlns="http://www.w3.org/2000/svg">
    <path fill-rule="evenodd" clip-rule="evenodd" d="M12 19C16.4183 19 20 15.4183 20 11C20 6.58172 16.4183 3 12 3C7.58172 3 4 6.58172 4 11C4 15.4183 7.58172 19 12 19ZM12 21C17.5228 21 22 16.5228 22 11C22 5.47715 17.5228 1 12 1C6.47715 1 2 5.47715 2 11C2 16.5228 6.47715 21 12 21Z" />
    <path d="M9.96523 6.52919C10.4339 6.82145 10.3399 7.81815 9.75538 8.75539C9.17086 9.69262 8.31713 10.2155 7.84851 9.92322C7.37989 9.63097 7.47384 8.63426 8.05836 7.69702C8.64288 6.75979 9.49661 6.23693 9.96523 6.52919Z" />
    <path d="M20.9783 21.9209C20.591 22.3146 19.3195 21.6917 18.1385 20.5297C16.9574 19.3677 16.314 18.1065 16.7014 17.7128C17.0887 17.3191 18.3601 17.942 19.5412 19.104C20.7222 20.2661 21.3656 21.5272 20.9783 21.9209Z" />
</svg>
