<svg viewBox="0 0 24 24" xmlns="http://www.w3.org/2000/svg">
    <path fill-rule="evenodd" clip-rule="evenodd" d="M24 12C23.2952 12.2741 22.6179 12.493 21.9692 12.6589C14.9075 14.4645 11.2305 9.98445 12.1778 2.00733C12.2546 1.3607 12.3618 0.691098 12.5 0C11.7973 0 11.1015 0.0812686 10.4205 0.234527C5.28716 1.38986 1 6.63637 1 12C1 18.0751 5.92487 23 12 23C17.3056 23 22.4966 19.1865 23.7265 14.2238C23.9049 13.504 24 12.76 24 12ZM21.4312 14.8217C20.9125 16.0901 20.0581 17.2656 18.9463 18.2579C17.039 19.9604 14.5036 21 12 21C7.02944 21 3 16.9706 3 12C3 9.55352 4.12018 7.0287 5.95116 5.09811C7.16109 3.82235 8.60924 2.88016 10.1273 2.38754C9.7486 6.47171 10.4825 10.0424 12.6489 12.412C14.7994 14.7641 17.8997 15.4775 21.4312 14.8217Z" />
</svg>
