<?xml version="1.0" encoding="UTF-8"?><!DOCTYPE svg PUBLIC "-//W3C//DTD SVG 1.1//EN" "http://www.w3.org/Graphics/SVG/1.1/DTD/svg11.dtd"><svg xmlns="http://www.w3.org/2000/svg" xmlns:xlink="http://www.w3.org/1999/xlink"><defs>
        <clipPath id="clip0_1_1912">
            <rect width="16" height="16"/>
        </clipPath>
    </defs><symbol id=""/><symbol id="close" viewBox="0 0 36 36">
    <path d="M27 18C27 22.9706 22.9706 27 18 27C13.0294 27 9 22.9706 9 18C9 13.0294 13.0294 9 18 9C22.9706 9 27 13.0294 27 18Z" stroke="#D8D8D8" stroke-width="18"/>
    <path d="M26 10L10 26" stroke="#8A8A8A" stroke-width="2"/>
    <path d="M10 10L26 26" stroke="#8A8A8A" stroke-width="2"/>
</symbol><symbol id="comment" viewBox="0 0 24 24">
    <path fill-rule="evenodd" clip-rule="evenodd" d="M15.6977 10.3485H9.18605V9.34848H15.6977V10.3485ZM15.6977 13.2576H9.18605V12.2576H15.6977V13.2576ZM16.8837 6H8C6.89543 6 6 6.89543 6 8V13.6364C6 14.7409 6.89543 15.6364 8 15.6364H16.8837C17.9883 15.6364 18.8837 14.7409 18.8837 13.6364V8C18.8837 6.89543 17.9883 6 16.8837 6ZM8 5C6.34315 5 5 6.34315 5 8V13.6364C5 15.2932 6.34314 16.6364 8 16.6364H16.8837C18.5406 16.6364 19.8837 15.2932 19.8837 13.6364V8C19.8837 6.34315 18.5406 5 16.8837 5H8Z"/>
    <path fill-rule="evenodd" clip-rule="evenodd" d="M14.5469 16.9824L10.3608 21.3461C10.2195 21.4934 10.0029 21.54 9.81347 21.4638C9.62408 21.3877 9.5 21.2041 9.5 20.9999V16.6363H10.5V19.7565L13.8252 16.2902L14.5469 16.9824Z"/>
</symbol><symbol id="dislike" viewBox="0 0 24 24">
    <path d="M8 4L8 3.25H8L8 4ZM17.3604 4.00002L17.3604 4.75002H17.3604V4.00002ZM19.3216 5.60779L18.5861 5.75487L19.3216 5.60779ZM20.5216 11.6078L21.257 11.4607L20.5216 11.6078ZM14 14V13.25C13.7234 13.25 13.4693 13.4023 13.3387 13.6461C13.2082 13.89 13.2225 14.1859 13.376 14.416L14 14ZM16.4258 17.6387L17.0498 17.2226L16.4258 17.6387ZM15.2467 20.6883L15.4286 21.4159L15.4286 21.4159L15.2467 20.6883ZM15.1992 20.7002L15.0173 19.9726L15.0173 19.9726L15.1992 20.7002ZM4 14H3.25C3.25 14.1989 3.32902 14.3897 3.46967 14.5304C3.61032 14.671 3.80109 14.75 4 14.75L4 14ZM4 4.00002L4 3.25002C3.58578 3.25002 3.25 3.58581 3.25 4.00002H4ZM13.1956 20.0615L12.6261 20.5496L13.1956 20.0615ZM8.75 14V4H7.25V14H8.75ZM8 4.75L17.3604 4.75002L17.3604 3.25002L8 3.25L8 4.75ZM18.5861 5.75487L19.7861 11.7549L21.257 11.4607L20.057 5.4607L18.5861 5.75487ZM18.5604 13.25H14V14.75H18.5604V13.25ZM13.376 14.416L15.8017 18.0547L17.0498 17.2226L14.624 13.584L13.376 14.416ZM15.0648 19.9607L15.0173 19.9726L15.3811 21.4278L15.4286 21.4159L15.0648 19.9607ZM8 13.25L4 13.25L4 14.75L8 14.75L8 13.25ZM4.75 14V4.00002H3.25V14H4.75ZM4 4.75002L8 4.75L8 3.25L4 3.25002L4 4.75002ZM15.0173 19.9726C14.5579 20.0875 14.0731 19.9329 13.765 19.5734L12.6261 20.5496C13.304 21.3405 14.3705 21.6805 15.3811 21.4278L15.0173 19.9726ZM15.8017 18.0547C16.2812 18.7739 15.9034 19.7511 15.0648 19.9607L15.4286 21.4159C17.2736 20.9547 18.1047 18.8049 17.0498 17.2226L15.8017 18.0547ZM19.7861 11.7549C19.9408 12.5284 19.3492 13.25 18.5604 13.25V14.75C20.2958 14.75 21.5973 13.1624 21.257 11.4607L19.7861 11.7549ZM17.3604 4.75002C17.9562 4.75002 18.4693 5.17059 18.5861 5.75487L20.057 5.4607C19.7999 4.17528 18.6713 3.25002 17.3604 3.25002V4.75002ZM13.765 19.5734L8.56944 13.5119L7.43056 14.4881L12.6261 20.5496L13.765 19.5734Z"/>
</symbol><symbol id="fire" viewBox="0 0 16 16">
    <g clip-path="url(#clip0_1_1912)">
        <path fill-rule="evenodd" clip-rule="evenodd" d="M8.49789 14.5C11.3304 14.5 13.4971 12.5193 13.4971 10C13.4971 8.50942 12.7947 7.78769 11.5569 6.55449C10.5387 5.54007 9.27583 4.26631 8.74902 2.14558C8.46086 2.37497 8.17936 2.66029 7.9531 2.99474C7.46604 3.71468 7.24058 4.63292 7.83879 5.82931C8.31231 6.77635 8.50841 8.11292 7.56066 9.06067C6.99612 9.62521 6.03042 10.0225 4.98238 9.58339C4.51163 9.38617 4.12204 9.0572 3.79773 8.6453C3.61652 9.02492 3.50001 9.48833 3.5 10C3.49994 12.5298 5.6636 14.5 8.49789 14.5ZM10.0143 0.499801C9.99819 0.224131 9.77398 0.00216511 9.50695 0.0725221C7.79801 0.522795 4.7625 3.03091 6.49715 6.50014C6.84142 7.18867 6.78164 7.71837 6.5 8.00001C6.03859 8.46142 5.15137 8.49703 4.4261 6.72384C4.31949 6.46321 4.02626 6.31677 3.78436 6.46091C2.68278 7.11733 2.00003 8.5355 2 10C1.99992 13.5121 4.99789 16 8.49789 16C11.9979 16 14.9971 13.5 14.9971 10C14.9971 7.86279 13.8699 6.74062 12.6862 5.56219C11.4555 4.33693 10.1637 3.05086 10.0143 0.499801Z"/>
    </g>
    
</symbol><symbol id="index"/><symbol id="like" viewBox="0 0 24 24">
    <path d="M8 20L8 20.75H8L8 20ZM17.3604 20V19.25H17.3604L17.3604 20ZM19.3216 18.3922L18.5861 18.2451L19.3216 18.3922ZM20.5216 12.3922L21.257 12.5393L20.5216 12.3922ZM14 9.99998L13.376 9.58396C13.2225 9.8141 13.2082 10.11 13.3387 10.3539C13.4693 10.5977 13.7234 10.75 14 10.75V9.99998ZM16.4258 6.36135L17.0498 6.77737V6.77737L16.4258 6.36135ZM15.2467 3.31166L15.0648 4.03927L15.0648 4.03927L15.2467 3.31166ZM15.1992 3.29977L15.3811 2.57217L15.3811 2.57216L15.1992 3.29977ZM4 9.99998L4 9.24998C3.80109 9.24998 3.61032 9.329 3.46967 9.46965C3.32902 9.6103 3.25 9.80107 3.25 9.99998H4ZM4 20H3.25C3.25 20.4142 3.58578 20.75 4 20.75L4 20ZM13.1956 3.93847L12.6261 3.45038V3.45038L13.1956 3.93847ZM7.25 10V20H8.75V10H7.25ZM8 20.75L17.3604 20.75L17.3604 19.25L8 19.25L8 20.75ZM20.057 18.5393L21.257 12.5393L19.7861 12.2451L18.5861 18.2451L20.057 18.5393ZM18.5604 9.24998H14V10.75H18.5604V9.24998ZM14.624 10.416L17.0498 6.77737L15.8017 5.94532L13.376 9.58396L14.624 10.416ZM15.4286 2.58406L15.3811 2.57217L15.0173 4.02738L15.0648 4.03927L15.4286 2.58406ZM8 9.25L4 9.24998L4 10.75L8 10.75L8 9.25ZM3.25 9.99998V20H4.75V9.99998H3.25ZM4 20.75L8 20.75L8 19.25L4 19.25L4 20.75ZM15.3811 2.57216C14.3705 2.31953 13.304 2.65952 12.6261 3.45038L13.765 4.42657C14.0731 4.06709 14.5579 3.91255 15.0173 4.02738L15.3811 2.57216ZM17.0498 6.77737C18.1047 5.19505 17.2736 3.04529 15.4286 2.58406L15.0648 4.03927C15.9034 4.24892 16.2812 5.22609 15.8017 5.94532L17.0498 6.77737ZM21.257 12.5393C21.5973 10.8376 20.2958 9.24998 18.5604 9.24998V10.75C19.3492 10.75 19.9408 11.4716 19.7861 12.2451L21.257 12.5393ZM17.3604 20.75C18.6713 20.75 19.7999 19.8247 20.057 18.5393L18.5861 18.2451C18.4693 18.8294 17.9562 19.25 17.3604 19.25V20.75ZM12.6261 3.45038L7.43056 9.51191L8.56944 10.4881L13.765 4.42657L12.6261 3.45038Z"/>
</symbol><symbol id="search" viewBox="0 0 24 24">
    <path fill-rule="evenodd" clip-rule="evenodd" d="M12 19C16.4183 19 20 15.4183 20 11C20 6.58172 16.4183 3 12 3C7.58172 3 4 6.58172 4 11C4 15.4183 7.58172 19 12 19ZM12 21C17.5228 21 22 16.5228 22 11C22 5.47715 17.5228 1 12 1C6.47715 1 2 5.47715 2 11C2 16.5228 6.47715 21 12 21Z"/>
    <path d="M9.96523 6.52919C10.4339 6.82145 10.3399 7.81815 9.75538 8.75539C9.17086 9.69262 8.31713 10.2155 7.84851 9.92322C7.37989 9.63097 7.47384 8.63426 8.05836 7.69702C8.64288 6.75979 9.49661 6.23693 9.96523 6.52919Z"/>
    <path d="M20.9783 21.9209C20.591 22.3146 19.3195 21.6917 18.1385 20.5297C16.9574 19.3677 16.314 18.1065 16.7014 17.7128C17.0887 17.3191 18.3601 17.942 19.5412 19.104C20.7222 20.2661 21.3656 21.5272 20.9783 21.9209Z"/>
</symbol><symbol id="star" viewBox="0 0 14 13">
    <path fill-rule="evenodd" clip-rule="evenodd" d="M9.09832 4.11181L6.99993 0L4.90153 4.11181L0.342529 4.83688L3.60465 8.10319L2.88543 12.6631L6.99993 10.57L11.1144 12.6631L10.3952 8.10319L13.6573 4.83688L9.09832 4.11181ZM11.5651 5.51669L8.43885 5.01949L6.99993 2.19992L5.561 5.01949L2.43478 5.51669L4.6717 7.75649L4.17851 10.8833L6.99993 9.44804L9.82134 10.8833L9.32815 7.75649L11.5651 5.51669Z"/>
</symbol><symbol id="tg" viewBox="0 0 24 24">
    <path d="M0 11L6 14L19.5 6L9 15V20.5L12.5 17.5L18.5 22H19.5L23.5 2.5L0 11Z"/>
</symbol><symbol id="theme" viewBox="0 0 24 24">
    <path fill-rule="evenodd" clip-rule="evenodd" d="M24 12C23.2952 12.2741 22.6179 12.493 21.9692 12.6589C14.9075 14.4645 11.2305 9.98445 12.1778 2.00733C12.2546 1.3607 12.3618 0.691098 12.5 0C11.7973 0 11.1015 0.0812686 10.4205 0.234527C5.28716 1.38986 1 6.63637 1 12C1 18.0751 5.92487 23 12 23C17.3056 23 22.4966 19.1865 23.7265 14.2238C23.9049 13.504 24 12.76 24 12ZM21.4312 14.8217C20.9125 16.0901 20.0581 17.2656 18.9463 18.2579C17.039 19.9604 14.5036 21 12 21C7.02944 21 3 16.9706 3 12C3 9.55352 4.12018 7.0287 5.95116 5.09811C7.16109 3.82235 8.60924 2.88016 10.1273 2.38754C9.7486 6.47171 10.4825 10.0424 12.6489 12.412C14.7994 14.7641 17.8997 15.4775 21.4312 14.8217Z"/>
</symbol><symbol id="vk" viewBox="0 0 36 36">
    <path d="M9 10C10.5369 13.5754 10.9873 15.4892 14.5 19.5H15V10H20V18.5H22C23.7668 15.6686 24.7547 13.9831 26.5 10H30.5V12.5L27 18.5V20L31.5 24.5V27H27.5L22.5 22H20V26.5H14.5C8.83308 22.4329 6.54021 19.1621 4 11.5V10H9Z"/>
</symbol></svg>