<?xml version="1.0" encoding="UTF-8"?><!DOCTYPE svg PUBLIC "-//W3C//DTD SVG 1.1//EN" "http://www.w3.org/Graphics/SVG/1.1/DTD/svg11.dtd"><svg xmlns="http://www.w3.org/2000/svg" xmlns:xlink="http://www.w3.org/1999/xlink"><defs/><symbol id="index"/><symbol id="search" viewBox="0 0 24 24">
    <path fill-rule="evenodd" clip-rule="evenodd" d="M12 19C16.4183 19 20 15.4183 20 11C20 6.58172 16.4183 3 12 3C7.58172 3 4 6.58172 4 11C4 15.4183 7.58172 19 12 19ZM12 21C17.5228 21 22 16.5228 22 11C22 5.47715 17.5228 1 12 1C6.47715 1 2 5.47715 2 11C2 16.5228 6.47715 21 12 21Z"/>
    <path d="M9.96523 6.52919C10.4339 6.82145 10.3399 7.81815 9.75538 8.75539C9.17086 9.69262 8.31713 10.2155 7.84851 9.92322C7.37989 9.63097 7.47384 8.63426 8.05836 7.69702C8.64288 6.75979 9.49661 6.23693 9.96523 6.52919Z"/>
    <path d="M20.9783 21.9209C20.591 22.3146 19.3195 21.6917 18.1385 20.5297C16.9574 19.3677 16.314 18.1065 16.7014 17.7128C17.0887 17.3191 18.3601 17.942 19.5412 19.104C20.7222 20.2661 21.3656 21.5272 20.9783 21.9209Z"/>
</symbol><symbol id="tg" viewBox="0 0 24 24">
    <path d="M0 11L6 14L19.5 6L9 15V20.5L12.5 17.5L18.5 22H19.5L23.5 2.5L0 11Z"/>
</symbol><symbol id="theme" viewBox="0 0 24 24">
    <path fill-rule="evenodd" clip-rule="evenodd" d="M24 12C23.2952 12.2741 22.6179 12.493 21.9692 12.6589C14.9075 14.4645 11.2305 9.98445 12.1778 2.00733C12.2546 1.3607 12.3618 0.691098 12.5 0C11.7973 0 11.1015 0.0812686 10.4205 0.234527C5.28716 1.38986 1 6.63637 1 12C1 18.0751 5.92487 23 12 23C17.3056 23 22.4966 19.1865 23.7265 14.2238C23.9049 13.504 24 12.76 24 12ZM21.4312 14.8217C20.9125 16.0901 20.0581 17.2656 18.9463 18.2579C17.039 19.9604 14.5036 21 12 21C7.02944 21 3 16.9706 3 12C3 9.55352 4.12018 7.0287 5.95116 5.09811C7.16109 3.82235 8.60924 2.88016 10.1273 2.38754C9.7486 6.47171 10.4825 10.0424 12.6489 12.412C14.7994 14.7641 17.8997 15.4775 21.4312 14.8217Z"/>
</symbol><symbol id="vk" viewBox="0 0 36 36">
    <path d="M9 10C10.5369 13.5754 10.9873 15.4892 14.5 19.5H15V10H20V18.5H22C23.7668 15.6686 24.7547 13.9831 26.5 10H30.5V12.5L27 18.5V20L31.5 24.5V27H27.5L22.5 22H20V26.5H14.5C8.83308 22.4329 6.54021 19.1621 4 11.5V10H9Z"/>
</symbol></svg>