<svg xmlns="http://www.w3.org/2000/svg" width="28" height="28" viewBox="0 0 28 28"><title>Group 9 Copy 4</title><g fill="none"><rect fill="#E9A21A" width="28" height="28" rx="4"/><path d="M4 0h10v17l3.758 11H4a4 4 0 0 1-4-4V4a4 4 0 0 1 4-4z" fill="#313E77"/><path d="M27 4.201h-2.747v-.33h-.217v-.88h-.324v.99h-.325v-.22H17.44v-.22h-.65l-1.319.33-.108-.66.779-.44V1.65l-.109-.22-.108-.22V.88C15.621.44 14.54 0 13.956 0c-.606 0-1.147.066-1.752.99-.606.924-.217 2.001-.217 2.001v.55c-.281-.242-.887-.33-.887-.33-1.6 0-2.314 2.486-2.314 3.322 0 .835.108 1.451.108 1.451h-.887c-.281 0-.325.594-.325 1.21-.021.616-.194 1.584-.108 1.782.065.176.779.22.779.22s-.195.088-.433.44c-.26.373 0 1.341 0 1.341v1.562l-.151.088-.216.22v.33l.108.22-.108.33v.44l.216.33s-.087.571-.216 1.21c-.13.66-.109 2.33-.109 2.33-.302.023-.324.44-.324.44s-.065.089-.433.66c-.39.572-.497 1.144-.54 1.562-.065.418-.347.726-.65 1.21-.324.484.217 1.1.217 1.1-.563 1.385-.692 2.375-.714 2.969h2.098a3.838 3.838 0 0 1-.173-1.1c0-.616.541-1.671.541-1.671l.433-.11.108-.44c.086-.374.476-1.166.779-1.782.28-.616 0-.99 0-.99l.216-.55.324-.33.433-.55.325-.44.108-.55s.238-.725.324-1.209c.087-.506.779-1.21.779-1.21l.108-.55.541.88.649.11 1.428 2.332h.778l.217.22v.99l-.325.44.217 1.671.108 1.21.216.22.216 1.671-.324.22-.108 1.54h4.283v-.088l-.108-.33-.433-.22-.54-.22-1.104-1.21.108-1.561.217-.44v-.77l-.217-.44.217-1.1.108-2.111-.217-.11v-.66h-.216s-.433-1.254-.649-1.892c-.238-.637-1.038-1.781-1.428-2.111-.389-.33-.41-.902-.432-1.1-.022-.22.216-.44.216-.44s.108.066.325.11c.216.044.216-.11.216-.11l.216-.44.216-.33.109-.99v-1.45c-.065-.55-.541-.77-.541-.77l.108-.44.433.22.54.22.65.33.778.22.541-.11.54-.33.542-.77.216-.99.324-.11.109-.22-.109-.44v-.99l.433-.33.108-.22.325-.22h2.53v-.329h3.527v-.506H27zm-9.02 2.552l-.325-.66.887.11-.563.55zm.778-.88h-.649l.216-.44h.433v.44z" fill="#FFF"/></g></svg>