<svg xmlns="http://www.w3.org/2000/svg" width="28" height="28" viewBox="0 0 28 28"><title>Group 3 Copy</title><g fill="none"><rect fill="#0C2B4C" width="28" height="28" rx="4"/><path d="M21.003 14.296c0-3.668-2.617-6.708-6.003-7.195V5c4.496.494 8 4.468 8 9.296C23 16.816 21.74 19 21.74 19h-2.398a7.427 7.427 0 0 0 1.66-4.704zM7 22c-1.851-1.789-3-4.266-3-7s1.149-5.207 3-7v3.81A7.478 7.478 0 0 0 6.28 15c0 1.136.262 2.216.72 3.19V22zm0 2l1.663-2.017V6.025L7 4h6.036v16.74H23l-2.227 3.256L7 24z" fill="#F3AE25"/></g></svg>